<svg xmlns="http://www.w3.org/2000/svg" viewBox="0 0 200 150" width="200" height="150">
  <defs>
    <linearGradient id="bevelPrism" x1="0%" y1="0%" x2="100%" y2="0%">
      <stop offset="0%" stop-color="#ffffff"/>
      <stop offset="25%" stop-color="#93c5fd"/>
      <stop offset="50%" stop-color="#c084fc"/>
      <stop offset="75%" stop-color="#fde047"/>
      <stop offset="100%" stop-color="#ffffff"/>
    </linearGradient>
  </defs>
  <rect width="200" height="150" fill="#0f172a"/>
  <!-- Central optical clear acrylic -->
  <rect x="25" y="20" width="150" height="110" fill="#0284c7" opacity="0.6"/>
  <!-- 45-degree polished beveled edge borders reflecting prism light -->
  <polygon points="25,20 175,20 160,35 40,35" fill="url(#bevelPrism)" opacity="0.9"/>
  <polygon points="175,20 175,130 160,115 160,35" fill="#93c5fd" opacity="0.85"/>
  <polygon points="175,130 25,130 40,115 160,115" fill="#38bdf8" opacity="0.7"/>
  <polygon points="25,130 25,20 40,35 40,115" fill="#bfdbfe" opacity="0.85"/>
  <!-- Bevel highlight sparkle -->
  <path d="M40 35 L43 45 L53 48 L43 51 L40 61 L37 51 L27 48 L37 45 Z" fill="#ffffff"/>
  <rect x="12" y="118" width="105" height="20" rx="4" fill="#0f172a" opacity="0.75"/>
  <text x="65" y="132" fill="#ffffff" font-size="10" font-family="Arial" font-weight="bold" text-anchor="middle">DIAMOND BEVEL 45°</text>
</svg>